<svg width="60" height="60" viewBox="0 0 60 60" fill="none" xmlns="http://www.w3.org/2000/svg">
<rect width="60" height="60" rx="14" fill="#7C7CDF"/>
<path d="M26 34H21.8667C21.3333 34 20.9387 33.7613 20.6827 33.284C20.4267 32.8067 20.4547 32.3453 20.7667 31.9L30.7333 17.5667C30.9555 17.2556 31.2444 17.0391 31.6 16.9173C31.9555 16.7956 32.3222 16.8009 32.7 16.9333C33.0778 17.0658 33.3555 17.2991 33.5333 17.6333C33.7111 17.9676 33.7778 18.3231 33.7333 18.7L32.6667 27.3333H37.8333C38.4111 27.3333 38.8169 27.5889 39.0507 28.1C39.2844 28.6111 39.212 29.0889 38.8333 29.5333L27.8667 42.6667C27.6222 42.9556 27.3222 43.1444 26.9667 43.2333C26.6111 43.3222 26.2667 43.2889 25.9333 43.1333C25.6 42.9778 25.3391 42.7391 25.1507 42.4173C24.9622 42.0956 24.8898 41.7453 24.9333 41.3667L26 34Z" fill="white"/>
</svg>
