<svg width="60" height="60" viewBox="0 0 60 60" fill="none" xmlns="http://www.w3.org/2000/svg">
<rect width="60" height="60" rx="14" fill="#7C7CDF"/>
<path d="M36.6667 18.4534C38.6777 19.6145 40.3506 21.2808 41.5198 23.2871C42.6889 25.2935 43.3138 27.5704 43.3326 29.8925C43.3513 32.2146 42.7633 34.5013 41.6267 36.5263C40.4901 38.5513 38.8443 40.2443 36.8523 41.4378C34.8603 42.6313 32.5912 43.2838 30.2695 43.3308C27.9478 43.3778 25.6541 42.8176 23.6154 41.7057C21.5768 40.5938 19.8638 38.9688 18.6462 36.9914C17.4286 35.0141 16.7486 32.753 16.6734 30.4321L16.6667 30.0001L16.6734 29.5681C16.748 27.2654 17.4181 25.0213 18.6182 23.0547C19.8183 21.0881 21.5076 19.466 23.5212 18.3466C25.5349 17.2271 27.8042 16.6486 30.108 16.6673C32.4118 16.686 34.6715 17.3014 36.6667 18.4534ZM30 22.0001C29.6734 22.0001 29.3582 22.12 29.1142 22.337C28.8701 22.554 28.7142 22.8531 28.676 23.1774L28.6667 23.3334V30.0001L28.6787 30.1747C28.7091 30.4061 28.7997 30.6254 28.9414 30.8107L29.0574 30.9441L33.0574 34.9441L33.1827 35.0534C33.4165 35.2348 33.7041 35.3333 34 35.3333C34.296 35.3333 34.5835 35.2348 34.8174 35.0534L34.9427 34.9427L35.0534 34.8174C35.2348 34.5836 35.3332 34.296 35.3332 34.0001C35.3332 33.7041 35.2348 33.4166 35.0534 33.1827L34.9427 33.0574L31.3334 29.4467V23.3334L31.324 23.1774C31.2858 22.8531 31.1299 22.554 30.8858 22.337C30.6418 22.12 30.3266 22.0001 30 22.0001Z" fill="white"/>
</svg>
